<?xml version="1.0" standalone="no"?><!DOCTYPE svg PUBLIC "-//W3C//DTD SVG 1.1//EN" "http://www.w3.org/Graphics/SVG/1.1/DTD/svg11.dtd"><svg t="1584668417942" class="icon" viewBox="0 0 1024 1024" version="1.1" xmlns="http://www.w3.org/2000/svg" p-id="1666" xmlns:xlink="http://www.w3.org/1999/xlink" width="200" height="200"><defs><style type="text/css"></style></defs><path d="M236.817859 570.719399s-189.157956-264.828194 33.831123-475.893478c69.708341 69.708341 87.629311 87.664588 87.629311 87.664588l171.272263-163.299549 157.337652 169.261446 91.615668-95.566748s226.975437 201.117029 15.910152 503.762704" fill="#EC9B2E" p-id="1667"></path><path d="M781.961071 727.06928m-90.592621 0a90.592621 90.592621 0 1 0 181.185241 0 90.592621 90.592621 0 1 0-181.185241 0Z" fill="#FAE2DD" p-id="1668"></path><path d="M232.337617 727.06928m-90.592621 0a90.592621 90.592621 0 1 0 181.185241 0 90.592621 90.592621 0 1 0-181.185241 0Z" fill="#FAE2DD" p-id="1669"></path><path d="M515.122059 701.069763m-303.739277 0a303.739277 303.739277 0 1 0 607.478554 0 303.739277 303.739277 0 1 0-607.478554 0Z" fill="#FAE2DD" p-id="1670"></path><path d="M400.399628 665.298377m-95.566748 0a95.566748 95.566748 0 1 0 191.133496 0 95.566748 95.566748 0 1 0-191.133496 0Z" fill="#230E04" p-id="1671"></path><path d="M638.31109 665.298377m-95.566749 0a95.566748 95.566748 0 1 0 191.133497 0 95.566748 95.566748 0 1 0-191.133497 0Z" fill="#230E04" p-id="1672"></path><path d="M445.166776 654.715127h143.367761v15.592655h-143.367761z" fill="#230E04" p-id="1673"></path></svg>